<svg xmlns="http://www.w3.org/2000/svg" xmlns:xlink="http://www.w3.org/1999/xlink" width="25" height="25" viewBox="0 0 25 25">
    <defs>
        <path id="a" d="M0 0h25v25H0z"/>
    </defs>
    <g fill="none" fill-rule="evenodd">
        <mask id="b" fill="#fff">
            <use xlink:href="#a"/>
        </mask>
        <path fill="#164194" d="M23.335 23.19c0 .094-.08.165-.182.165l-21.348-.002a.157.157 0 0 1-.107-.065c-.028-.037-.037-.08-.028-.154L2.998 7.378c.013-.087.082-.141.18-.141h18.66c.082 0 .15.055.16.108l1.335 15.818.335.033-.333-.005zM12.5 1.646c2.32 0 4.22 1.708 4.468 3.947H8.033c.248-2.24 2.148-3.947 4.466-3.947zM24.98 22.937L23.647 7.13c-.134-.877-.919-1.538-1.826-1.538H18.64C18.38 2.48 15.693 0 12.499 0 9.307 0 6.62 2.48 6.362 5.592H3.163c-.912 0-1.674.651-1.814 1.571L.022 22.918c-.075.478.045.957.337 1.346.29.39.716.644 1.195.714.09.014.183.022.292.022h21.323A1.83 1.83 0 0 0 25 23.207a1.8 1.8 0 0 0-.02-.27z" mask="url(#b)"/>
    </g>
</svg>
