<?xml version="1.0" encoding="UTF-8"?>
<svg width="25px" height="25px" viewBox="0 0 25 25" version="1.1" xmlns="http://www.w3.org/2000/svg" xmlns:xlink="http://www.w3.org/1999/xlink">
    <!-- Generator: Sketch 55.2 (78181) - https://sketchapp.com -->
    <title>Panier</title>
    <desc>Created with Sketch.</desc>
    <defs>
        <polygon id="path-1" points="0 0 25 0 25 25 0 25"></polygon>
    </defs>
    <g id="Page-1" stroke="none" stroke-width="1" fill="none" fill-rule="evenodd">
        <g id="Mon-panier" transform="translate(-367.000000, -15.000000)">
            <g id="Panier" transform="translate(367.000000, 15.000000)">
                <mask id="mask-2" fill="white">
                    <use xlink:href="#path-1"></use>
                </mask>
                <g id="Clip-2"></g>
                <path d="M23.3353958,23.1907895 C23.3340641,23.2842105 23.2554948,23.3552632 23.1529552,23.3552632 L1.80473931,23.3526316 C1.76079376,23.3460526 1.72350662,23.3236842 1.69820464,23.2881579 C1.67023929,23.2513158 1.6609175,23.2078947 1.67023929,23.1342105 L2.99792759,7.37763158 C3.01124443,7.29078947 3.08049196,7.23684211 3.17770485,7.23684211 L21.837252,7.23684211 C21.9198164,7.23684211 21.9877322,7.29210526 21.997054,7.34473684 L23.3327324,23.1631579 L23.6683166,23.1960526 L23.3353958,23.1907895 Z M12.4994883,1.64473684 C14.8192807,1.64473684 16.7195929,3.35263158 16.967286,5.59210526 L8.03302236,5.59210526 C8.28071547,3.35263158 10.1810276,1.64473684 12.4994883,1.64473684 L12.4994883,1.64473684 Z M24.9800247,22.9368421 L23.6470097,7.13026316 C23.5125097,6.25263158 22.7281482,5.59210526 21.8212718,5.59210526 L18.6385486,5.59210526 C18.380202,2.48026316 15.692865,0 12.4994883,0 C9.30744333,0 6.61877464,2.48026316 6.36175975,5.59210526 L3.16305633,5.59210526 C2.25085323,5.59210526 1.48913035,6.24342105 1.3493036,7.16315789 L0.0216152928,22.9184211 C-0.0529589751,23.3960526 0.0668925269,23.875 0.358531182,24.2644737 C0.648838153,24.6539474 1.07497683,24.9078947 1.55438284,24.9776316 C1.64360562,24.9921053 1.73682346,25 1.84602149,25 L23.1689354,25 C24.1663662,25 24.9866832,24.1973684 25,23.2065789 C25,23.1144737 24.9933416,23.025 24.9800247,22.9368421 L24.9800247,22.9368421 Z" id="Fill-1" fill="#164194" mask="url(#mask-2)"></path>
                <text id="4" mask="url(#mask-2)" font-family="OpenSans-Regular, Open Sans" font-size="12" font-weight="normal" letter-spacing="0.144" fill="#000000">
                    <tspan x="9.49733594" y="20">4</tspan>
                </text>
            </g>
        </g>
    </g>
</svg>