<?xml version="1.0" encoding="UTF-8"?>
<svg width="27px" height="24px" viewBox="0 0 27 24" version="1.1" xmlns="http://www.w3.org/2000/svg" xmlns:xlink="http://www.w3.org/1999/xlink">
    <!-- Generator: Sketch 55.2 (78181) - https://sketchapp.com -->
    <title>FAV</title>
    <desc>Created with Sketch.</desc>
    <g id="Page-1" stroke="none" stroke-width="1" fill="none" fill-rule="evenodd">
        <g id="ACCUEIL" transform="translate(-325.000000, -694.000000)" fill="#164194" fill-rule="nonzero">
            <g id="NOUVEAUTÉS" transform="translate(19.000000, 630.000000)">
                <g id="NOUV-2" transform="translate(179.000000, 48.000000)">
                    <path d="M146.454887,16 C144.898496,16 143.477444,16.5070423 142.225564,17.4535211 C141.582707,17.9605634 141.007519,18.5352113 140.5,19.2450704 C139.992481,18.5352113 139.417293,17.9605634 138.774436,17.4535211 C137.522556,16.4732394 136.101504,16 134.545113,16 C132.447368,16 130.552632,16.8450704 129.131579,18.3661972 C127.744361,19.8535211 127,21.915493 127,24.1126761 C127,26.4112676 127.845865,28.4732394 129.672932,30.6704225 C131.296992,32.6309859 133.665414,34.6253521 136.37218,36.9577465 L136.37218,36.9577465 C137.285714,37.7352113 138.368421,38.6478873 139.451128,39.5943662 C139.755639,39.8309859 140.093985,40 140.5,40 C140.87218,40 141.244361,39.8647887 141.548872,39.5943662 C142.631579,38.6478873 143.680451,37.7352113 144.62782,36.9577465 C147.334586,34.6253521 149.703008,32.6309859 151.327068,30.6704225 C153.154135,28.4732394 154,26.3774648 154,24.1126761 C154,21.8816901 153.255639,19.8535211 151.868421,18.3661972 C150.447368,16.8450704 148.552632,16 146.454887,16 L146.454887,16 Z" id="FAV"></path>
                </g>
            </g>
        </g>
    </g>
</svg>