<?xml version="1.0" encoding="UTF-8"?>
<svg width="27px" height="24px" viewBox="0 0 27 24" version="1.1" xmlns="http://www.w3.org/2000/svg" xmlns:xlink="http://www.w3.org/1999/xlink">
    <!-- Generator: Sketch 55.2 (78181) - https://sketchapp.com -->
    <title>FAV</title>
    <desc>Created with Sketch.</desc>
    <g id="Page-1" stroke="none" stroke-width="1" fill="none" fill-rule="evenodd">
        <g id="ACCUEIL" transform="translate(-147.000000, -694.000000)" fill="#164194" fill-rule="nonzero">
            <g id="NOUVEAUTÉS" transform="translate(19.000000, 630.000000)">
                <g id="NOUV-1" transform="translate(1.000000, 48.000000)">
                    <path d="M146.462334,18 C147.991137,18 149.384047,18.6143345 150.40325,19.7064846 C151.456425,20.8327645 152,22.4027304 152,24.1433447 C152,25.9522184 151.320532,27.6245734 149.791728,29.4675768 C148.262925,31.3105802 145.952733,33.2901024 143.302806,35.5767918 C142.487445,36.2593857 141.502216,37.112628 140.483013,38 C139.463811,37.112628 138.512555,36.2935154 137.697194,35.5767918 L137.697194,35.5767918 L137.697194,35.5767918 C135.047267,33.2901024 132.737075,31.3447099 131.208272,29.4675768 C129.679468,27.5904437 129,25.9522184 129,24.1433447 C129,22.4368601 129.577548,20.8327645 130.59675,19.7064846 C131.615953,18.6143345 133.008863,18 134.537666,18 C135.658789,18 136.644018,18.3412969 137.5613,19.0580205 C138.036928,19.4334471 138.478582,19.9112628 138.886263,20.4573379 L140.55096,22.7440273 L142.215657,20.4573379 C142.623338,19.9112628 143.064993,19.4334471 143.54062,19.0580205 C144.355982,18.3412969 145.341211,18 146.462334,18 L146.462334,18 Z M146.454887,16 C144.898496,16 143.477444,16.5070423 142.225564,17.4535211 C141.582707,17.9605634 141.007519,18.5352113 140.5,19.2450704 C139.992481,18.5352113 139.417293,17.9605634 138.774436,17.4535211 C137.522556,16.4732394 136.101504,16 134.545113,16 C132.447368,16 130.552632,16.8450704 129.131579,18.3661972 C127.744361,19.8535211 127,21.915493 127,24.1126761 C127,26.4112676 127.845865,28.4732394 129.672932,30.6704225 C131.296992,32.6309859 133.665414,34.6253521 136.37218,36.9577465 L136.37218,36.9577465 C137.285714,37.7352113 138.368421,38.6478873 139.451128,39.5943662 C139.755639,39.8309859 140.093985,40 140.5,40 C140.87218,40 141.244361,39.8647887 141.548872,39.5943662 C142.631579,38.6478873 143.680451,37.7352113 144.62782,36.9577465 C147.334586,34.6253521 149.703008,32.6309859 151.327068,30.6704225 C153.154135,28.4732394 154,26.3774648 154,24.1126761 C154,21.8816901 153.255639,19.8535211 151.868421,18.3661972 C150.447368,16.8450704 148.552632,16 146.454887,16 L146.454887,16 Z" id="FAV"></path>
                </g>
            </g>
        </g>
    </g>
</svg>