<?xml version="1.0" encoding="UTF-8"?>
<svg width="60px" height="60px" viewBox="0 0 60 60" version="1.1" xmlns="http://www.w3.org/2000/svg" xmlns:xlink="http://www.w3.org/1999/xlink">
    <!-- Generator: Sketch 55.2 (78181) - https://sketchapp.com -->
    <title>Promo</title>
    <desc>Created with Sketch.</desc>
    <defs>
        <polygon id="path-1" points="5.25730341e-05 0.00839248434 59.9998747 0.00839248434 59.9998747 59.9999812 5.25730341e-05 59.9999812"></polygon>
    </defs>
    <g id="Page-1" stroke="none" stroke-width="1" fill="none" fill-rule="evenodd">
        <g id="MON-MAGASIN-:-ACCUEIL" transform="translate(-273.000000, -162.000000)">
            <g id="PROMO-ACTUELLES" transform="translate(213.000000, 136.000000)">
                <g id="Promo" transform="translate(60.000000, 26.000000)">
                    <g id="Group-3">
                        <mask id="mask-2" fill="white">
                            <use xlink:href="#path-1"></use>
                        </mask>
                        <g id="Clip-2"></g>
                        <path d="M14.2836451,16.0713069 C14.6758372,16.4502213 15.3000125,16.4448351 15.6858163,16.0590313 C16.07162,15.6732276 16.0770063,15.0495532 15.6980919,14.6568601 L13.7044384,12.6633319 C15.0216827,12.0323925 16.6014739,12.4431232 17.4439791,13.6357328 C18.2868601,14.8283424 18.1468184,16.4547307 17.1124134,17.4856284 C15.9250647,18.6186138 14.056547,18.6186138 12.8693236,17.4856284 C11.9658163,16.5908894 11.7328309,15.2205344 12.2899916,14.0776534 L14.2836451,16.0713069 Z M35.554334,56.7717244 L2.90493946,24.1204509 C2.44247599,23.6579875 2.28088935,22.9738121 2.48782046,22.3531441 L7.00723591,8.79289353 L10.8190522,12.6042088 C9.33496033,14.8496367 9.88573278,17.8902213 12.1265261,19.4619958 C14.0436451,20.8069228 16.6811399,20.6211608 18.3954614,19.0257119 C20.3346263,17.220952 20.5270271,14.2352317 18.8646889,12.1993653 C17.2408058,10.2107223 14.3749603,9.77456367 12.2328727,11.1903883 L8.23203758,7.18955324 L22.7832276,2.34470981 C23.1407223,2.22558664 23.5349186,2.31865553 23.8013486,2.58521086 L56.7731649,35.5561503 C57.2219749,36.0047098 57.2219749,36.7322255 56.7731649,37.1809102 L37.1823507,56.7717244 C36.7327891,57.221286 36.0038956,57.221286 35.554334,56.7717244 L35.554334,56.7717244 Z M24.3448559,0.298947808 C24.0756701,0.0317661795 23.6797203,-0.0600501044 23.3207223,0.0607014614 L6.65412526,5.61301879 L1.69504384,0.65393737 C1.30247599,0.275022965 0.67880167,0.280409186 0.292997912,0.666212944 C-0.0928058455,1.0520167 -0.0981920668,1.67569102 0.280722338,2.06838413 L5.42581628,7.21347808 L0.0565052192,23.3169019 C-0.0631189979,23.6758998 0.0307014614,24.0719749 0.298759916,24.3401587 L35.6611816,59.7073403 C36.0518706,60.0975282 36.6848142,60.0975282 37.0756284,59.7073403 L59.7071524,37.075691 C60.0974656,36.6850021 60.0974656,36.0519332 59.7071524,35.6612443 L24.3448559,0.298947808 Z" id="Fill-1" fill="#164194" mask="url(#mask-2)"></path>
                    </g>
                    <polygon id="Fill-4" fill="#164194" points="21 37.7689761 23.768995 35 39 50.2305334 36.2305146 53"></polygon>
                    <polygon id="Fill-6" fill="#164194" points="28 30.7687969 30.7690704 28 46 43.2307126 43.2305617 46"></polygon>
                    <polygon id="Fill-8" fill="#164194" points="32 26.7690516 34.7692874 24 50 39.230458 47.2312031 42"></polygon>
                    <polygon id="Fill-10" fill="#164194" points="36 22.4165412 37.4166248 21 53 36.5830824 51.5828733 38"></polygon>
                    <polygon id="Fill-12" fill="#164194" points="25 33.4170117 26.416928 32 42 47.5829883 40.5835738 49"></polygon>
                </g>
            </g>
        </g>
    </g>
</svg>