<?xml version="1.0" encoding="UTF-8"?>
<svg width="58px" height="69px" viewBox="0 0 58 69" version="1.1" xmlns="http://www.w3.org/2000/svg" xmlns:xlink="http://www.w3.org/1999/xlink">
    <!-- Generator: Sketch 55.2 (78181) - https://sketchapp.com -->
    <title>Sac</title>
    <desc>Created with Sketch.</desc>
    <g id="Page-1" stroke="none" stroke-width="1" fill="none" fill-rule="evenodd">
        <g id="MON-MAGASIN-:-ACCUEIL" transform="translate(-177.000000, -504.000000)" fill="#164194">
            <g id="Group-8" transform="translate(19.000000, 486.000000)">
                <g id="Sac" transform="translate(158.000000, 18.000000)">
                    <g id="Group-3" transform="translate(21.000000, 0.000000)">
                        <path d="M17.6848667,8.49926667 C17.0102,3.7706 12.8942,0.204266667 8.1112,0.204266667 C5.0352,0.204266667 2.11386667,1.6886 0.297533333,4.17626667 C-0.0734666667,4.6836 0.0375333333,5.39526667 0.544866667,5.76626667 C1.05053333,6.13593333 1.76386667,6.02626667 2.1342,5.51826667 C3.52453333,3.61593333 5.75853333,2.47993333 8.11086667,2.47993333 C11.7688667,2.47993333 14.9158667,5.20593333 15.4318667,8.82026667 C15.5132,9.38793333 16.0002,9.7976 16.5572,9.7976 C16.6102,9.7976 16.6645333,9.7936 16.7192,9.78626667 C17.3412,9.69726667 17.7735333,9.12093333 17.6848667,8.49926667" id="Fill-1"></path>
                    </g>
                    <path d="M52.3109837,15.5547604 C52.099473,15.2102532 51.7170343,15 51.3043307,15 L47.9297905,15 C47.2815019,15 46.7556486,15.5119063 46.7556486,16.1426658 C46.7556486,16.7734254 47.2815019,17.2853317 47.9297905,17.2853317 L51.5,17.5 L53.5,20.5 L4.5,20.5 L6.5,17.5 L8.60325999,17.2853317 C9.25120471,17.2853317 9.77705794,16.7734254 9.77705794,16.1426658 C9.77705794,15.5119063 9.25120471,15 8.60325999,15 L6.69553738,15 C6.28283373,15 5.90073894,15.2102532 5.6888844,15.5547604 L2.16714661,21.2687592 C1.94944543,21.6223059 1.94428664,22.0618958 2.15235806,22.4201297 C2.36042948,22.7783637 2.75043443,23 3.17379959,23 L54.8260685,23 C55.2494336,23 55.6394386,22.7783637 55.84751,22.4201297 C56.0559253,22.0618958 56.0504226,21.6216363 55.8327214,21.2687592 L52.3109837,15.5547604 Z" id="Fill-4"></path>
                    <path d="M48.8286141,11.1807255 C48.6685778,10.9227957 48.4139899,10.7398027 48.1193094,10.6708876 L32.5730737,7.03009603 C32.2787273,6.96084639 31.9686779,7.01236545 31.7114171,7.17160617 C31.4548246,7.33151597 31.2717351,7.58676947 31.2029095,7.88183316 L30.0302012,12.8999231 C29.8868702,13.5138028 30.2674157,14.128017 30.8811664,14.2711998 C31.4942489,14.4150517 32.1083338,14.0336769 32.2513307,13.4194627 L33.1637712,9.51371601 L46.4892115,12.6346334 L44.3950419,21.5986147 C44.2517109,22.2124944 44.6322564,22.8267086 45.245673,22.9698915 C45.3338767,22.9902984 45.4210781,23 45.5072772,23 C46.0248057,23 46.493889,22.6447192 46.6158373,22.1184889 L48.9696064,12.0428333 C49.0391002,11.7481042 48.9883162,11.4376517 48.8286141,11.1807255" id="Fill-6"></path>
                    <path d="M29.9918767,13.2066972 L28.9246876,4.04908352 C28.8883139,3.7361128 28.7308092,3.45029639 28.4864881,3.25534244 C28.242167,3.06038849 27.9336773,2.97126668 27.623815,3.00816868 L8.03351774,5.35736378 C7.39148855,5.43464909 6.93235705,6.02508106 7.00819267,6.67713239 L8.78741305,21.95073 C8.85810145,22.5554354 9.36355789,23 9.94931086,23 C9.9949495,23 10.0419607,22.9968668 10.0886288,22.9916448 C10.7303148,22.9143595 11.1894463,22.3239276 11.1139539,21.6718762 L9.47199253,7.57740188 L26.7360921,5.50740869 L27.6653358,13.4848547 C27.7415146,14.1365579 28.3207478,14.5995735 28.9662084,14.5257695 C29.6082376,14.4491805 30.0673691,13.8584004 29.9918767,13.2066972" id="Fill-8"></path>
                    <path d="M38.9682058,21.5555246 L36.6963715,11.8957453 C36.6252824,11.59437 36.4398471,11.3334525 36.1809753,11.171279 C35.9227742,11.010477 35.6125976,10.9600763 35.3154987,11.0320772 L16.8772585,15.5660774 C16.2626057,15.7169365 15.8843579,16.349173 16.0319014,16.9776381 L17.1673155,21.8058135 C17.314859,22.4349643 17.9332003,22.8220549 18.5475177,22.6701673 C19.1621704,22.5193082 19.5404183,21.8870716 19.3928748,21.2586065 L18.5247155,17.5680456 L34.7377318,13.581938 L36.7416405,22.1034172 C36.8673878,22.6399954 37.3371797,23 37.8539172,23 C37.9424433,23 38.032646,22.9893713 38.1228487,22.9670853 C38.7375014,22.8158834 39.1154139,22.1839897 38.9682058,21.5555246" id="Fill-10"></path>
                    <g id="Group-14" transform="translate(0.000000, 22.000000)">
                        <path d="M2,45.5 L4,1.5 L54,1.5 L56,45.5 L2,45.5 Z M55.5708854,1.10537286 C55.5390023,0.496387143 55.031248,0.0179942857 54.4142772,0.0179942857 L3.47365731,0.0179942857 C2.85702573,0.0179942857 2.34893216,0.495715714 2.31704912,1.10537286 L0.00145847953,45.7953229 C-0.0148222222,46.1092157 0.0998210526,46.4160586 0.318253801,46.6436729 C0.537025731,46.8706157 0.840253801,46.9998657 1.15772749,46.9998657 L56.7295287,46.9998657 C57.046324,46.9998657 57.3502304,46.8709514 57.5696807,46.6436729 C57.7881135,46.4160586 57.9027567,46.1095514 57.8868152,45.7953229 L55.5708854,1.10537286 Z" id="Fill-12"></path>
                    </g>
                    <path d="M37.5,30.6668945 C36.8563965,30.6668945 36.3334473,30.1436035 36.3334473,29.5003418 C36.3334473,28.8570801 36.8567383,28.3337891 37.5,28.3337891 C38.1432617,28.3337891 38.6665527,28.8570801 38.6665527,29.5003418 C38.6665527,30.1436035 38.1432617,30.6668945 37.5,30.6668945 M37.5,26 C35.569873,26 34,27.569873 34,29.5 C34,31.430127 35.569873,33 37.5,33 C39.430127,33 41,31.430127 41,29.5 C41,27.569873 39.430127,26 37.5,26" id="Fill-15"></path>
                    <path d="M19.5,30.6668945 C18.8567383,30.6668945 18.3334473,30.1436035 18.3334473,29.5003418 C18.3334473,28.8570801 18.8567383,28.3337891 19.5,28.3337891 C20.1432617,28.3337891 20.6665527,28.8570801 20.6665527,29.5003418 C20.6665527,30.1436035 20.1432617,30.6668945 19.5,30.6668945 M19.5,26 C17.569873,26 16,27.569873 16,29.5 C16,31.430127 17.569873,33 19.5,33 C21.430127,33 23,31.430127 23,29.5 C23,27.569873 21.430127,26 19.5,26" id="Fill-17"></path>
                    <path d="M37.8236308,29 L37.7329818,29 C37.0836177,29 36.5566126,29.5076758 36.5566126,30.1332227 C36.5566126,30.2879492 36.5883225,30.4357031 36.6472616,30.5701758 L36.6472616,36.3664453 C36.6472616,40.4281836 33.2167304,43.7332227 29,43.7332227 C24.7832696,43.7332227 21.3527384,40.4285156 21.3527384,36.3664453 L21.3527384,30.1335547 C21.3527384,29.5080078 20.8257333,29.000332 20.1763692,29.000332 C19.5270051,29.000332 19,29.5080078 19,30.1335547 L19,36.3667773 C19,41.6786133 23.4859201,46 29,46 C34.5140799,46 39,41.6786133 39,36.3667773 L39,30.1335547 C39,29.5080078 38.4729949,29 37.8236308,29" id="Fill-19"></path>
                </g>
            </g>
        </g>
    </g>
</svg>