<?xml version="1.0" encoding="UTF-8"?>
<svg width="57px" height="61px" viewBox="0 0 57 61" version="1.1" xmlns="http://www.w3.org/2000/svg" xmlns:xlink="http://www.w3.org/1999/xlink">
    <!-- Generator: Sketch 55.2 (78181) - https://sketchapp.com -->
    <title>Group 3</title>
    <desc>Created with Sketch.</desc>
    <g id="Page-1" stroke="none" stroke-width="1" fill="none" fill-rule="evenodd">
        <g id="MON-MAGASIN-:-ACCUEIL" transform="translate(-81.000000, -338.000000)" fill="#164194">
            <g id="vérifier-stocks" transform="translate(19.000000, 311.000000)">
                <g id="Group-3" transform="translate(62.000000, 27.000000)">
                    <path d="M55.2185125,46.1751082 L55.2185125,46.1751082 L29.3907438,58.682598 L29.3907438,28.1956141 L38.5578035,23.8111242 L38.5578035,33.6752435 C38.5578035,33.9827451 38.7154058,34.2684441 38.9750279,34.4321431 C39.1192096,34.5228091 39.2837003,34.5687973 39.4487848,34.5687973 C39.5807337,34.5687973 39.7131576,34.5393696 39.8358427,34.4799185 L46.5002688,31.2525212 C46.8081098,31.1034765 47.0035984,30.7908518 47.0035984,30.4478462 L47.0035984,19.6662259 L55.2185125,15.6877669 L55.2185125,46.1751082 Z M28.5,26.6426175 L26.0301457,25.4464468 C26.0299082,25.4463277 26.0297894,25.4463277 26.0295519,25.4462085 L22.2235819,23.6029857 L2.93957319,14.264157 L11.7882218,9.97879201 L37.4030433,22.3837018 L28.5,26.6426175 Z M27.6092562,58.682598 L1.78148753,46.1748699 L1.78148753,15.6876478 L18.2829315,23.6791165 L19.1357889,24.0920575 L19.1324635,24.0925341 L27.6092562,28.1956141 L27.6092562,58.682598 Z M19.1017031,6.47332083 L44.5455019,18.9769981 C45.0118953,19.2063435 45.3058408,19.6836204 45.3016112,20.2046219 L45.2221109,29.8868136 L40.3392911,32.2515144 L40.5459436,22.3966881 C40.552832,22.0665497 40.3666072,21.7626223 40.0696926,21.6196537 L13.8847951,9.0099414 L19.1017031,6.47332083 Z M28.5,1.88581554 L54.0604268,14.264157 L46.6509826,17.8523117 C46.6040701,17.8165695 46.5545448,17.7834485 46.50015,17.7571184 L21.1133589,5.46300931 L28.5,1.88581554 Z M56.4965516,13.459482 L28.8872954,0.0888192492 C28.642519,-0.0296064164 28.357481,-0.0296064164 28.1128234,0.0888192492 L0.503448376,13.459482 C0.195607331,13.6085267 0,13.9212706 0,14.264157 L0,46.7357835 C0,47.0786698 0.195607331,47.3914137 0.503448376,47.5404585 L28.1127046,60.9111212 C28.2350334,60.970334 28.3675761,61 28.5,61 C28.6324239,61 28.7649666,60.970334 28.8872954,60.9111212 L56.4965516,47.5404585 C56.8045114,47.3914137 57,47.0786698 57,46.7357835 L57,14.2642761 C57,13.9211514 56.8043927,13.6086459 56.4965516,13.459482 L56.4965516,13.459482 Z" id="Fill-1"></path>
                </g>
            </g>
        </g>
    </g>
</svg>