<?xml version="1.0" encoding="UTF-8"?>
<svg width="59px" height="61px" viewBox="0 0 59 61" version="1.1" xmlns="http://www.w3.org/2000/svg" xmlns:xlink="http://www.w3.org/1999/xlink">
    <!-- Generator: Sketch 55.2 (78181) - https://sketchapp.com -->
    <title>Group 7</title>
    <desc>Created with Sketch.</desc>
    <g id="Page-1" stroke="none" stroke-width="1" fill="none" fill-rule="evenodd">
        <g id="MON-MAGASIN-:-ACCUEIL" transform="translate(-274.000000, -336.000000)" fill="#164194">
            <g id="AIDE-VENDEUR" transform="translate(213.000000, 311.000000)">
                <g id="Group-7" transform="translate(61.000000, 25.000000)">
                    <path d="M29.49988,56.2594038 C25.4221856,56.2594038 21.5005269,55.3840793 17.8435289,53.6579733 C17.5157338,53.5030908 17.1336862,53.5096435 16.8111723,53.675487 L8.82646261,57.7797543 L10.2079792,48.9422775 C10.2635519,48.5871199 10.1488056,48.2266011 9.89806817,47.9672325 C5.01246862,42.9188966 2.32181205,36.2828959 2.32181205,29.2818491 C2.32181205,14.4066945 14.5138459,2.30465175 29.49988,2.30465175 C44.4859141,2.30465175 56.6780679,14.4065754 56.6780679,29.2819682 C56.6780679,44.157361 44.4860341,56.2594038 29.49988,56.2594038 M0,29.2820873 C0,36.6891647 2.77503591,43.7202349 7.82651347,49.1457692 L6.18129646,59.6708698 C6.11432111,60.0998943 6.29568267,60.5296337 6.650604,60.7831645 C6.85189013,60.9269669 7.08954459,61 7.32839932,61 C7.51084113,61 7.6940031,60.9574669 7.86216163,60.870971 L17.3732611,55.9819258 C21.1931365,57.6958795 25.2696306,58.5642938 29.49988,58.5642938 C45.7661274,58.5642938 59,45.4284699 59,29.2822065 C59,13.135824 45.7663675,0 29.49988,0 C13.2333925,0 0,13.135824 0,29.2820873 Z" id="Fill-1"></path>
                    <path d="M29,18 C26.7943761,18 25,16.2056239 25,14 C25,11.7943761 26.7943761,10 29,10 C31.2057494,10 33,11.7943761 33,14 C33,16.2056239 31.2056239,18 29,18 M29,8 C25.6916107,8 23,10.6916107 23,14 C23,17.3083893 25.6916107,20 29,20 C32.3086237,20 35,17.3083893 35,14 C35,10.6913763 32.3083893,8 29,8" id="Fill-3"></path>
                    <path d="M34.9997591,46.0000592 L22.9997591,46.0000592 L22.9997591,44.4447994 L24.403136,44.4447994 C25.0838624,44.4447994 25.6356304,43.9185627 25.6356304,43.2696062 L25.6356304,26.7302691 C25.6356304,26.0811911 25.0837349,25.5550759 24.403136,25.5550759 L22.9997591,25.5550759 L22.9997591,24.0000592 L32.3638878,24.0000592 L32.3638878,43.2698492 C32.3638878,43.9189272 32.9157834,44.4450424 33.5963823,44.4450424 L34.9997591,44.4450424 L34.9997591,46.0000592 Z M34.5087989,41.9081874 L34.5087989,23.1443445 C34.5087989,22.5123048 33.9872194,22 33.3440064,22 L22.1647925,22 C21.521459,22 21,22.5124231 21,23.1443445 L21,26.9473497 C21,27.5793895 21.5215794,28.0916943 22.1647925,28.0916943 L23.4910807,28.0916943 L23.4910807,41.9081874 L22.1647925,41.9081874 C21.521459,41.9081874 21,42.4207288 21,43.0525319 L21,46.8555372 C21,47.4878135 21.5215794,48 22.1647925,48 L35.8352075,48 C36.478541,48 37,47.4876952 37,46.8556555 L37,43.0526503 C37,42.4207288 36.4783001,41.9081874 35.8350871,41.9081874 L34.5087989,41.9081874 Z" id="Fill-5"></path>
                </g>
            </g>
        </g>
    </g>
</svg>