<svg id="Calque_1" data-name="Calque 1" xmlns="http://www.w3.org/2000/svg" viewBox="0 0 40.37 39.49"><defs><style>.cls-1{fill:#525252;}</style></defs><title>compte</title><path class="cls-1" d="M45.12,37.93c-1.74-6.35-8.73-12.26-16-14.07a12,12,0,1,0-8.62,0C13.21,25.63,6.17,31.67,4.85,38a1.77,1.77,0,0,0,1.76,2.09H43.39A1.77,1.77,0,0,0,45.12,37.93ZM15.58,12.65a9.3,9.3,0,1,1,9.3,9.3A9.31,9.31,0,0,1,15.58,12.65ZM41.42,37.51H8.5a.34.34,0,0,1-.33-.44,15.88,15.88,0,0,1,4.95-6.58A19.28,19.28,0,0,1,24.77,25.9c6.79,0,14.54,5.39,17,11.15A.34.34,0,0,1,41.42,37.51Z" transform="translate(-4.82 -0.65)"/></svg>