<svg id="Calque_1" data-name="Calque 1" xmlns="http://www.w3.org/2000/svg" viewBox="0 0 63.1 56.2"><defs><style>.cls-1{fill:#525252;}</style></defs><title>favoris</title><path class="cls-1" d="M63.52,7.69a17.37,17.37,0,0,0-12.81-5.6,16.35,16.35,0,0,0-10,3.45A21.17,21.17,0,0,0,37,9.21a20.49,20.49,0,0,0-3.66-3.67,15.89,15.89,0,0,0-10-3.45A17.41,17.41,0,0,0,10.5,7.69a19.69,19.69,0,0,0-5,13.56c0,5.37,2,10.26,6.26,15.4C15.22,40.86,20.15,45.1,25.85,50l2.7,2.3c1.77,1.52,3.75,3.19,5.74,4.94a4.41,4.41,0,0,0,2.72,1,4.12,4.12,0,0,0,2.74-1.05c2.49-2.17,4.9-4.27,7.08-6.06L48.17,50c5.71-4.91,10.64-9.16,14.13-13.37,4.27-5.14,6.26-10,6.26-15.4A19.7,19.7,0,0,0,63.52,7.69Zm.58,13.25c0,4.23-1.65,8.19-5.18,12.45s-8.86,8.86-15,14.17l-.49.42c-1.92,1.6-4.22,3.59-6.45,5.53l-2.4-2.09C33.15,50.2,31.82,49,30.62,48l-1.4-1.2c-5.77-5-10.74-9.25-14.11-13.39C11.53,29,9.93,25.15,9.93,20.94a15.5,15.5,0,0,1,3.69-10.31A12.33,12.33,0,0,1,22.71,6.7a10.86,10.86,0,0,1,6.94,2.43,17.06,17.06,0,0,1,3.09,3.26l4.4,6,4.39-6a17.57,17.57,0,0,1,3.11-3.28A9.81,9.81,0,0,1,51.32,6.7a12.3,12.3,0,0,1,9.08,3.93A14.92,14.92,0,0,1,64.1,20.94Z" transform="translate(-5.47 -2.09)"/></svg>