<?xml version="1.0" encoding="UTF-8"?>
<svg width="41px" height="41px" viewBox="0 0 41 41" version="1.1" xmlns="http://www.w3.org/2000/svg" xmlns:xlink="http://www.w3.org/1999/xlink">
    <!-- Generator: Sketch 55.2 (78181) - https://sketchapp.com -->
    <title>CODE BARRE</title>
    <desc>Created with Sketch.</desc>
    <g id="Page-1" stroke="none" stroke-width="1" fill="none" fill-rule="evenodd">
        <g id="Pixel-2-:-recherche" transform="translate(-352.000000, -65.000000)">
            <g id="CODE-BARRE" transform="translate(352.000000, 65.000000)">
                <path d="M39.3614028,5.87348837 L40.4415463,5.87348837 L40.4415463,0.533953488 C40.4415463,0.238677209 40.2001342,-1.55431223e-14 39.9014745,-1.55431223e-14 L34.5007568,-1.55431223e-14 L34.5007568,1.06790698 L39.3614028,1.06790698 L39.3614028,5.87348837 Z" id="Fill-11" fill="#164194"></path>
                <path d="M39.6314386,34.1730233 L39.6314386,38.9786047 L34.7707927,38.9786047 L34.7707927,40.0465116 L40.1715104,40.0465116 C40.4701701,40.0465116 40.7115822,39.8078344 40.7115822,39.5125581 L40.7115822,34.1730233 L39.6314386,34.1730233 Z" id="Fill-13" fill="#164194"></path>
                <path d="M1.08014354,1.06790698 L5.94078947,1.06790698 L5.94078947,-1.55431223e-14 L0.54007177,-1.55431223e-14 C0.241412081,-1.55431223e-14 -2.26485497e-14,0.238677209 -2.26485497e-14,0.533953488 L-2.26485497e-14,5.87348837 L1.08014354,5.87348837 L1.08014354,1.06790698 Z" id="Fill-16" fill="#164194"></path>
                <path d="M1.08014354,34.1730233 L-2.26485497e-14,34.1730233 L-2.26485497e-14,39.5125581 C-2.26485497e-14,39.8078344 0.241412081,40.0465116 0.54007177,40.0465116 L5.94078947,40.0465116 L5.94078947,38.9786047 L1.08014354,38.9786047 L1.08014354,34.1730233 Z" id="Fill-18" fill="#164194"></path>
                <rect id="Rectangle" fill="#000000" x="7" y="10" width="1" height="20"></rect>
                <rect id="Rectangle-Copy" fill="#000000" x="10" y="10" width="1" height="20"></rect>
                <rect id="Rectangle-Copy-2" fill="#000000" x="13" y="10" width="1" height="20"></rect>
                <rect id="Rectangle-Copy-3" fill="#000000" x="16" y="10" width="1" height="20"></rect>
                <rect id="Rectangle-Copy-4" fill="#000000" x="19" y="10" width="1" height="20"></rect>
                <rect id="Rectangle-Copy-5" fill="#000000" x="22" y="10" width="1" height="20"></rect>
                <rect id="Rectangle-Copy-6" fill="#000000" x="25" y="10" width="1" height="20"></rect>
                <rect id="Rectangle-Copy-7" fill="#000000" x="28" y="10" width="1" height="20"></rect>
                <rect id="Rectangle-Copy-8" fill="#000000" x="31" y="10" width="1" height="20"></rect>
                <rect id="Rectangle-Copy-9" fill="#000000" x="34" y="10" width="1" height="20"></rect>
            </g>
        </g>
    </g>
</svg>