<svg id="Calque_1" data-name="Calque 1" xmlns="http://www.w3.org/2000/svg" viewBox="0 0 49.03 39.35"><defs><style>.cls-1{fill:#525252;}</style></defs><title>home</title><path class="cls-1" d="M10.07.72a9.58,9.58,0,1,0,9.58,9.58A9.58,9.58,0,0,0,10.07.72Zm0,16.66a7.08,7.08,0,1,1,7.08-7.08A7.09,7.09,0,0,1,10.07,17.38Z" transform="translate(-0.48 -0.72)"/><path class="cls-1" d="M27.21,12.32C23.61,16.86,18.63,22,10.37,22V40.06a27.51,27.51,0,0,0,21-8.89c4.91-5.3,8.12-10.6,18.15-10.6V2.48C37.72,2.48,30.73,7.86,27.21,12.32ZM47,18.18c-8.11.74-12,5.08-15.69,9.29-.58.66-1.17,1.33-1.8,2a24.71,24.71,0,0,1-16.66,8V24.33c7.76-.91,12.75-6,16.3-10.46C31.6,10.8,37,5.8,47,5.07Z" transform="translate(-0.48 -0.72)"/></svg>