<svg id="Calque_1" data-name="Calque 1" xmlns="http://www.w3.org/2000/svg" viewBox="0 0 39.14 39.43"><defs><style>.cls-1{fill:#164194;}.cls-2{fill:#e00018;}.cls-3{fill:#004492;}</style></defs><title>magasin-bleu</title><path class="cls-1" d="M42.79,13.22H40v-1.3h3.29a1.13,1.13,0,0,0,1.08-1.16V1.84A1.13,1.13,0,0,0,43.24.68H6.54A1.13,1.13,0,0,0,5.46,1.84v8.92a1.13,1.13,0,0,0,1.08,1.16h3.51v1.3H7.21A1.78,1.78,0,0,0,5.43,15V38.32A1.78,1.78,0,0,0,7.21,40.1H42.79a1.78,1.78,0,0,0,1.78-1.78V15A1.78,1.78,0,0,0,42.79,13.22ZM8,9.37V3.23H41.77V9.37ZM37.4,11.92v1.3H12.6v-1.3Zm-10,25.63H22l.15-16.09H27.4Zm14.62,0H30V20.07a1.13,1.13,0,0,0-1.08-1.16H20.71a1.12,1.12,0,0,0-1.07,1.16V37.55H8V15.77H42Z" transform="translate(-5.43 -0.68)"/><g id="layer1"><g id="g21811"><g id="g14291"><path id="path14293" class="cls-2" d="M13.43,6.31a.67.67,0,1,0-.68-.67.67.67,0,0,0,.68.67" transform="translate(-5.43 -0.68)"/></g><g id="g14295"><path id="path14297" class="cls-3" d="M16.18,6.23V5a1.89,1.89,0,0,0-1.55.68,1.48,1.48,0,0,1-1.18.68V7.59A1.93,1.93,0,0,0,14.92,7c.34-.37.56-.74,1.26-.74" transform="translate(-5.43 -0.68)"/></g><g id="g14299"><path id="path14301" class="cls-2" d="M17.08,5a.28.28,0,0,0-.26.31v2a.29.29,0,0,0,.27.3.26.26,0,0,0,.27-.3v-2c0-.2-.08-.3-.28-.3" transform="translate(-5.43 -0.68)"/></g><g id="g14303"><path id="path14305" class="cls-2" d="M18.37,5.92V7.29c0,.21-.11.29-.26.29a.29.29,0,0,1-.27-.3v-2A.29.29,0,0,1,18.11,5c.27,0,.29.14.35.22l.91,1.36V5.28A.28.28,0,0,1,19.63,5c.2,0,.29.1.29.3v2c0,.21-.12.3-.26.3s-.26-.14-.34-.25" transform="translate(-5.43 -0.68)"/></g><g id="g14307"><path id="path14309" class="cls-2" d="M21.37,5.43V7.29a.26.26,0,0,1-.27.3.3.3,0,0,1-.28-.3V5.43h-.49c-.2,0-.31-.06-.32-.24s.08-.22.3-.22h1.58c.16,0,.28,0,.28.22s-.09.24-.31.24" transform="translate(-5.43 -0.68)"/></g><g id="g14311"><path id="path14313" class="cls-2" d="M24.28,5.2C24.28,5,24.19,5,24,5H22.51c-.13,0-.21.1-.21.28V7.36c0,.12.05.22.2.22h1.55c.18,0,.25-.07.25-.19s-.07-.24-.26-.24H22.85V6.44h1.06c.1,0,.21-.05.21-.23S24,6,23.86,6h-1v-.6H24c.14,0,.26,0,.26-.21" transform="translate(-5.43 -0.68)"/></g><g id="g14315"><path id="path14317" class="cls-2" d="M25.66,6.15h-.55V5.37h.55a.39.39,0,1,1,0,.78m.92,1c0-.09,0-.23,0-.3a.5.5,0,0,0-.48-.55.55.55,0,0,0,.52-.62c0-.67-.57-.74-1-.74H25c-.18,0-.4,0-.4.36v1.9c0,.27.08.36.28.36s.28-.08.28-.36V6.48h.34c.27,0,.6.06.6.55s0,.57.33.57a.24.24,0,0,0,.23-.16c0-.09,0-.18,0-.26" transform="translate(-5.43 -0.68)"/></g><g id="g14319"><path id="path14321" class="cls-3" d="M31.93,6.82a.53.53,0,0,1,0-1.06.53.53,0,1,1,0,1.06m2.38-.55H34V5.69h.21c.18,0,.35.12.35.27s-.1.31-.27.31m-4.42.05h-.32V5.69h.3a.3.3,0,0,1,.31.28c0,.24-.14.35-.29.35M36.83,5H35.27c-.14,0-.19.08-.19.23v.17a.9.9,0,0,0-.73-.4h-.9c-.13,0-.19,0-.19.21v.7a1.37,1.37,0,0,0-1.32-1,1.43,1.43,0,0,0-1.18.59,1.06,1.06,0,0,0-1-.54h-.71c-.13,0-.21,0-.21.17V6.38a.82.82,0,0,0-.73-.47h-.38c-.18,0-.23-.09-.23-.18a.11.11,0,0,1,.12-.12h.83c.11,0,.2,0,.2-.16V5.14c0-.12-.06-.16-.24-.16h-.86a.8.8,0,0,0-.84.81c0,.62.66.79,1,.79H28a.12.12,0,0,1,.13.12c0,.07,0,.13-.12.13h-1c-.14,0-.17.06-.17.19v.4c0,.11,0,.17.17.17h1.08c.23,0,.72-.18.72-.55v.39c0,.09,0,.16.13.16h.47c.12,0,.13-.08.12-.17V7.14c0-.07.05-.1.12-.1.3,0,.89-.11.89-.36a1.42,1.42,0,0,0,1.35,1,1.31,1.31,0,0,0,1.32-1.1v.82c0,.09,0,.21.13.21h.49c.09,0,.13,0,.13-.17V6.68l.57.82s.07.09.15.09h.58c.08,0,.07-.07,0-.13l-.47-.72a.82.82,0,0,0,.45-.8.87.87,0,0,0,0-.18h.4V7.42c0,.09,0,.17.17.17h.5c.14,0,.13-.08.13-.16V5.76h.3c.19,0,.22,0,.22-.19V5.12C37,5,37,5,36.83,5" transform="translate(-5.43 -0.68)"/></g></g></g></svg>