<svg id="Calque_1" data-name="Calque 1" xmlns="http://www.w3.org/2000/svg" viewBox="0 0 39.01 39.48"><defs><style>.cls-1{fill:#525252;}</style></defs><title>panier</title><path class="cls-1" d="M44.48,36.87l-2.08-25a2.9,2.9,0,0,0-2.85-2.43h-5a9.61,9.61,0,0,0-19.16,0h-5A2.86,2.86,0,0,0,7.6,12L5.53,36.84A2.84,2.84,0,0,0,6.05,39,2.9,2.9,0,0,0,7.92,40.1a3.13,3.13,0,0,0,.46,0H41.65a2.87,2.87,0,0,0,2.86-2.83A3,3,0,0,0,44.48,36.87ZM25,3.25a7,7,0,0,1,7,6.23H18A7,7,0,0,1,25,3.25Zm16.91,34a.27.27,0,0,1-.29.26H8.31a.27.27,0,0,1-.17-.1.37.37,0,0,1,0-.25L10.17,12.3a.26.26,0,0,1,.28-.22H39.57a.24.24,0,0,1,.25.17l2.08,25,.53.05Z" transform="translate(-5.49 -0.65)"/></svg>