<svg id="Calque_1" data-name="Calque 1" xmlns="http://www.w3.org/2000/svg" viewBox="0 0 46.45 39.33"><defs><style>.cls-1{fill:none;}.cls-2{fill:#164194;}</style></defs><title>recherche-bleu</title><path class="cls-1" d="M22,4.46l-.47-.2.43.2a8.67,8.67,0,0,1,.82.38C22.54,4.7,22.28,4.58,22,4.46Z" transform="translate(-1.77 -0.72)"/><path class="cls-2" d="M47.19,8.29c.57,0,1-.3,1-.69V5.53c0-.38-.47-.69-1-.69h-20l-.41-.38A15,15,0,0,0,16.9.72h0A15,15,0,0,0,7,4.46a15.11,15.11,0,0,0,19.48,23.1L38.52,39.61a1.46,1.46,0,0,0,.85.42,1.44,1.44,0,0,0,1.29-.38,1.52,1.52,0,0,0,0-2.14l0,0-1.29-1.29L28.61,25.42a15.86,15.86,0,0,0,2.18-3.6h16.4c.57,0,1-.31,1-.7V19.05c0-.38-.47-.69-1-.69H31.82A15.94,15.94,0,0,0,32,15.85c0-.27,0-.53,0-.8H46.78c.57,0,1-.31,1-.69V12.28c0-.38-.47-.69-1-.69H31.41A15.39,15.39,0,0,0,30,8.29H47.19ZM29.33,17.12a11.36,11.36,0,0,1-.18,1.19s0,0,0,.05h0a12.21,12.21,0,0,1-.45,1.6l-.13.37a15.37,15.37,0,0,1-.67,1.49,14.63,14.63,0,0,1-.79,1.25l-.25.33c-.24.31-.48.6-.74.88-.08.09-.16.19-.25.28a12.67,12.67,0,0,1-1.08,1l-.21.16a12.07,12.07,0,0,1-1,.7c-.12.08-.24.16-.37.23-.35.2-.72.39-1.09.57l-.25.11a10.71,10.71,0,0,1-1.41.51l-.37.09c-.38.1-.77.18-1.16.25-.15,0-.29,0-.44.06a11.6,11.6,0,0,1-1.57.11,12.49,12.49,0,0,1,0-25,13.76,13.76,0,0,1,1.45.09l.43.07c.34,0,.67.11,1,.19l.44.11c.33.09.66.2,1,.32l.35.12.47.2c.26.12.52.24.78.38a12.33,12.33,0,0,1,4,3.45,12.54,12.54,0,0,1,1.79,3.3h0a12.39,12.39,0,0,1,.72,3.46c0,.27,0,.53,0,.8C29.39,16.28,29.37,16.71,29.33,17.12Z" transform="translate(-1.77 -0.72)"/></svg>