<?xml version="1.0" encoding="UTF-8"?>
<svg width="260px" height="260px" version="1.1" xmlns="http://www.w3.org/2000/svg" xmlns:xlink="http://www.w3.org/1999/xlink">
    <!-- Generator: sketchtool 55.2 (78181) - https://sketchapp.com -->
    <title>9DF269F3-AA21-452E-B97D-24711CC60E34</title>
    <desc>Created with sketchtool.</desc>
    <g id="Page-1" stroke="none" stroke-width="1" fill="none" fill-rule="evenodd">
        <g id="Onboarding-1" transform="translate(-198.000000, -410.000000)" fill-rule="nonzero">
            <g id="onboarding-02" transform="translate(198.000000, 410.000000)">
                <g id="screen_bg" transform="translate(0.000000, 0.500000)" fill="#164194">
                    <ellipse id="Oval" opacity="0.25" cx="129.921312" cy="129.564706" rx="129.909502" ry="129.411765"></ellipse>
                    <ellipse id="Oval" cx="129.921312" cy="129.564706" rx="111.013575" ry="110.588235"></ellipse>
                </g>
                <g id="illustrations" transform="translate(55.000000, 57.500000)" fill="#FFFFFF">
                    <path d="M49.1937984,98.784 L62.7677519,98.784 C63.9544525,103.371121 68.3735749,106.361968 73.0825439,105.765015 C77.7915128,105.168063 81.321139,101.169559 81.321139,96.432 C81.321139,91.6944414 77.7915128,87.6959373 73.0825439,87.0989846 C68.3735749,86.5020319 63.9544525,89.4928786 62.7677519,94.08 L49.1937984,94.08 C48.2983996,90.6278765 45.5244339,87.9777053 42.0297674,87.23568 L41.0046512,82.32 L80.7956589,82.32 L86.6871318,58.8 L35.0071318,58.8 L23.8722481,49.90944 L20.9265116,53.57856 L32.0496124,62.45736 L37.2694574,87.45912 C32.9329424,88.8024038 30.1721569,93.0403028 30.7015153,97.5411331 C31.2308737,102.041963 34.89993,105.526569 39.4302445,105.831051 C43.9605591,106.135534 48.0645962,103.173358 49.1937984,98.784 Z M71.875969,91.728 C74.4789855,91.728 76.5891473,93.8340525 76.5891473,96.432 C76.5891473,99.0299475 74.4789855,101.136 71.875969,101.136 C69.2729525,101.136 67.1627907,99.0299475 67.1627907,96.432 C67.1627907,93.8340525 69.2729525,91.728 71.875969,91.728 Z M77.1075969,77.616 L40.0620155,77.616 L37.1162791,63.504 L80.7131783,63.504 L77.1075969,77.616 Z M35.3488372,96.432 C35.3488372,93.8340525 37.458999,91.728 40.0620155,91.728 C42.665032,91.728 44.7751938,93.8340525 44.7751938,96.432 C44.7751938,99.0299475 42.665032,101.136 40.0620155,101.136 C37.458999,101.136 35.3488372,99.0299475 35.3488372,96.432 Z" id="Shape"></path>
                    <path d="M145.436899,14.112 L122.542636,14.112 L122.542636,18.816 L145.354419,18.816 C145.354419,18.816 146.108527,18.91008 146.108527,19.992 L146.108527,139.944 C146.108527,141.0024 145.990698,141.12 144.930233,141.12 L122.542636,141.12 L122.542636,145.824 L144.930233,145.824 C146.528997,145.953449 148.104066,145.375658 149.238277,144.243655 C150.372488,143.111653 150.951408,141.539651 150.821705,139.944 L150.821705,19.992 C150.929041,16.8960874 148.535979,14.2829564 145.436899,14.112 Z" id="Path"></path>
                    <path d="M4.71317829,139.944 L4.71317829,20.1096 C5.0334748,19.5676085 5.49318243,19.120977 6.04465116,18.816 L28.2790698,18.816 L28.2790698,14.112 L5.89147287,14.112 C3.25209302,14.112 0,17.35776 0,19.992 L0,139.944 C0,143.472 2.14449612,145.824 5.46728682,145.824 L28.2790698,145.824 L28.2790698,141.12 L5.47906977,141.12 C4.99596899,141.12 4.71317829,141.12 4.71317829,139.944 Z" id="Path"></path>
                    <path d="M107.036279,0 L42.1122481,0 C40.0620155,0 37.7054264,0.882 37.7054264,5.20968 L37.7054264,48.216 L42.4186047,48.216 L42.4186047,5.20968 C42.4186047,4.998 42.4186047,4.8216 42.4186047,4.68048 L107.012713,4.68048 C107.535303,4.71401025 108.026707,4.94037041 108.391318,5.31552 L108.391318,14.112 L51.8449612,14.112 L51.8449612,18.816 L108.403101,18.816 L108.403101,119.952 L51.8449612,119.952 L51.8449612,124.656 L108.403101,124.656 L108.403101,140.48496 C108.038489,140.86011 107.547086,141.08647 107.024496,141.12 L42.4186047,141.12 C42.4186047,140.99064 42.4186047,140.81424 42.4186047,140.5908 L42.4186047,115.248 L37.7054264,115.248 L37.7054264,140.5908 C37.7054264,145.44768 41.0753488,145.824 42.1004651,145.824 L107.024496,145.824 C109.899535,145.824 113.116279,143.5896 113.116279,140.5908 L113.116279,5.20968 C113.116279,2.21088 109.911318,0 107.036279,0 Z" id="Path"></path>
                </g>
            </g>
        </g>
    </g>
</svg>